<svg width="24" height="25" viewBox="0 0 24 25" fill="none" xmlns="http://www.w3.org/2000/svg">
<ellipse cx="12" cy="12.3" rx="12" ry="12.3" fill="#0976B4"/>
<path fill-rule="evenodd" clip-rule="evenodd" d="M7.32524 9.12546C8.15137 9.12546 8.8211 8.49942 8.8211 7.72632C8.8211 6.95254 8.15137 6.32568 7.32524 6.32568C6.4983 6.32568 5.82857 6.95254 5.82857 7.72632C5.82857 8.49942 6.4983 9.12546 7.32524 9.12546Z" fill="white"/>
<path fill-rule="evenodd" clip-rule="evenodd" d="M6.17143 18.1259H8.85543V10.1915H6.17143V18.1259Z" fill="white"/>
<path fill-rule="evenodd" clip-rule="evenodd" d="M12.6225 13.7129C12.6225 12.803 13.0425 11.9132 14.0467 11.9132C15.051 11.9132 15.2979 12.803 15.2979 13.6912V18.0246H17.9699V13.514C17.9699 10.3803 16.1627 9.84003 15.051 9.84003C13.9402 9.84003 13.3275 10.2251 12.6225 11.1583V10.0901H9.94286V18.0246H12.6225V13.7129Z" fill="white"/>
</svg>
