<svg xmlns="http://www.w3.org/2000/svg" version="1.1" xmlnsXlink="http://www.w3.org/1999/xlink" xmlnsSvgjs="http://svgjs.dev/svgjs" width="1000" height="131" viewBox="0 0 1000 131"><g transform="matrix(1,0,0,1,-0.6060605742497387,-0.016646871783223105)"><svg viewBox="0 0 396 52" data-background-color="#ffffff" preserveAspectRatio="xMidYMid meet" height="131" width="1000" xmlns="http://www.w3.org/2000/svg" xmlnsXlink="http://www.w3.org/1999/xlink"><g id="tight-bounds" transform="matrix(1,0,0,1,0.24000001259719284,0.006607918570438187)"><svg viewBox="0 0 395.52 51.98678155638524" height="51.98678155638524" width="395.52"><g><svg viewBox="0 0 395.52 51.98678155638524" height="51.98678155638524" width="395.52"><g><svg viewBox="0 0 467.4702142614394 61.44385091253553" height="51.98678155638524" width="395.52"><g transform="matrix(1,0,0,1,0,8.491878092832337)"><svg viewBox="0 0 395.52 44.46009472687086" height="44.46009472687086" width="395.52"><g id="textblocktransform"><svg viewBox="0 0 395.52 44.46009472687086" height="44.46009472687086" width="395.52" id="textblock"><g><svg viewBox="0 0 395.52 44.46009472687086" height="44.46009472687086" width="395.52"><g transform="matrix(1,0,0,1,0,0)"><svg width="395.52" viewBox="1.850000023841858 -35.29999923706055 316.67999267578125 35.599998474121094" height="44.46009472687086" data-palette-color="#000000"><path d="M50.2-35L53.75-35 41.95 0 38.05 0 27.8-29.85 17.5 0 13.65 0 1.85-35 5.65-35 15.75-4.9 26.2-35 29.65-35 39.95-4.75 50.2-35ZM70.15 0.3Q66.25 0.3 62.67-0.95 59.1-2.2 57.15-4.25L57.15-4.25 58.6-7.1Q60.5-5.2 63.65-4.03 66.8-2.85 70.15-2.85L70.15-2.85Q74.85-2.85 77.2-4.58 79.55-6.3 79.55-9.05L79.55-9.05Q79.55-11.15 78.27-12.4 77-13.65 75.15-14.33 73.3-15 70-15.8L70-15.8Q66.05-16.8 63.7-17.73 61.35-18.65 59.67-20.55 58-22.45 58-25.7L58-25.7Q58-28.35 59.4-30.53 60.8-32.7 63.7-34 66.6-35.3 70.9-35.3L70.9-35.3Q73.9-35.3 76.77-34.48 79.65-33.65 81.75-32.2L81.75-32.2 80.5-29.25Q78.3-30.7 75.8-31.43 73.3-32.15 70.9-32.15L70.9-32.15Q66.3-32.15 63.97-30.38 61.65-28.6 61.65-25.8L61.65-25.8Q61.65-23.7 62.92-22.43 64.2-21.15 66.12-20.48 68.05-19.8 71.3-19L71.3-19Q75.15-18.05 77.52-17.13 79.9-16.2 81.55-14.33 83.2-12.45 83.2-9.25L83.2-9.25Q83.2-6.6 81.77-4.42 80.35-2.25 77.4-0.98 74.45 0.3 70.15 0.3L70.15 0.3ZM104.35-35Q111.05-35 114.85-31.8 118.65-28.6 118.65-23L118.65-23Q118.65-17.4 114.85-14.23 111.05-11.05 104.35-11.05L104.35-11.05 94.95-11.05 94.95 0 91.25 0 91.25-35 104.35-35ZM104.25-14.3Q109.45-14.3 112.2-16.57 114.95-18.85 114.95-23L114.95-23Q114.95-27.25 112.2-29.53 109.45-31.8 104.25-31.8L104.25-31.8 94.95-31.8 94.95-14.3 104.25-14.3ZM126.64 0L126.64-35 130.34-35 130.34-3.2 149.94-3.2 149.94 0 126.64 0ZM156.09 0L156.09-35 159.79-35 159.79 0 156.09 0ZM177.99 0L177.99-31.8 165.69-31.8 165.69-35 193.99-35 193.99-31.8 181.69-31.8 181.69 0 177.99 0ZM235.03-18.05Q238.48-17.3 240.36-15.08 242.23-12.85 242.23-9.35L242.23-9.35Q242.23-4.85 238.91-2.43 235.58 0 229.08 0L229.08 0 212.98 0 212.98-35 228.08-35Q233.93-35 237.16-32.65 240.38-30.3 240.38-26L240.38-26Q240.38-23.1 238.96-21.08 237.53-19.05 235.03-18.05L235.03-18.05ZM227.83-31.95L216.68-31.95 216.68-19.25 227.83-19.25Q232.08-19.25 234.38-20.88 236.68-22.5 236.68-25.6L236.68-25.6Q236.68-28.7 234.38-30.33 232.08-31.95 227.83-31.95L227.83-31.95ZM229.03-3.05Q233.73-3.05 236.13-4.65 238.53-6.25 238.53-9.65L238.53-9.65Q238.53-16.2 229.03-16.2L229.03-16.2 216.68-16.2 216.68-3.05 229.03-3.05ZM250.68 0L250.68-35 254.38-35 254.38 0 250.68 0ZM265.78 0L265.78-35 269.48-35 269.48-3.2 289.08-3.2 289.08 0 265.78 0ZM295.23 0L295.23-35 298.93-35 298.93-3.2 318.53-3.2 318.53 0 295.23 0Z" opacity="1" transform="matrix(1,0,0,1,0,0)" fill="#000000" class="wordmark-text-0" data-fill-palette-color="primary" id="text-0"></path></svg></g></svg></g></svg></g></svg></g><g transform="matrix(1,0,0,1,406.01596132274074,0)"><svg viewBox="0 0 61.45425293869865 61.44385091253553" height="61.44385091253553" width="61.45425293869865"><g><svg xmlns="http://www.w3.org/2000/svg" xmlnsXlink="http://www.w3.org/1999/xlink" version="1.1" x="0" y="0" viewBox="14.233896255493164 14.239999771118164 71.5321044921875 71.5199966430664" enable-background="new 0 0 100 100" xmlSpace="preserve" height="61.44385091253553" width="61.45425293869865" class="icon-icon-0" data-fill-palette-color="accent" id="icon-0"><g fill="#7c2cb0" data-fill-palette-color="accent"><path fill="#7c2cb0" d="M68.841 14.24c-1.239 0.056-2.31 1.267-2.253 2.506 0.084 1.238 1.268 2.337 2.506 2.252h8.533L49.072 47.606H16.489c-1.239 0.057-2.309 1.268-2.253 2.506 0.056 1.239 1.267 2.337 2.506 2.253H49.1l28.555 28.636h-8.562c-1.238-0.027-2.394 1.127-2.394 2.365 0 1.268 1.155 2.394 2.394 2.394h14.278c1.268 0 2.394-1.126 2.394-2.394V69.063c0.028-1.268-1.126-2.45-2.422-2.422-1.239 0-2.365 1.154-2.337 2.422v8.56L53.408 50l27.599-27.65v8.588c0 1.238 1.126 2.394 2.365 2.394 1.268 0 2.394-1.155 2.394-2.394V16.633c0-1.267-1.126-2.393-2.394-2.393H68.841z" data-fill-palette-color="accent"></path></g></svg></g></svg></g></svg></g></svg></g><defs></defs></svg><rect width="395.52" height="51.98678155638524" fill="none" stroke="none" visibility="hidden"></rect></g></svg></g></svg>