<svg width="20" height="20" viewBox="0 0 20 20" fill="none" xmlns="http://www.w3.org/2000/svg">
<rect width="20" height="20" rx="5" fill="#EFEFEF"/>
<path d="M14.796 15.1531V14.008C14.796 13.4006 14.5521 12.8181 14.1178 12.3887C13.6836 11.9592 13.0947 11.7179 12.4806 11.7179H7.84978C7.23569 11.7179 6.64676 11.9592 6.21253 12.3887C5.77831 12.8181 5.53436 13.4006 5.53436 14.008V15.1531" stroke="black" stroke-width="0.973292" stroke-linecap="round" stroke-linejoin="round"/>
<path d="M10.1649 9.42763C11.4437 9.42763 12.4803 8.40229 12.4803 7.13747C12.4803 5.87266 11.4437 4.84732 10.1649 4.84732C8.88613 4.84732 7.84949 5.87266 7.84949 7.13747C7.84949 8.40229 8.88613 9.42763 10.1649 9.42763Z" stroke="black" stroke-width="0.973292" stroke-linecap="round" stroke-linejoin="round"/>
</svg>
